<svg width="24" height="24" viewBox="0 -960 960 960" xmlns="http://www.w3.org/2000/svg" xmlns:xlink="http://www.w3.org/1999/xlink" overflow="hidden"><path d="M800-120 200-120C178-120 159.167-127.833 143.5-143.5 127.833-159.167 120-178 120-200L120-760C120-782 127.833-800.833 143.5-816.5 159.167-832.167 178-840 200-840L800-840C822-840 840.833-832.167 856.5-816.5 872.167-800.833 880-782 880-760L880-200C880-178 872.167-159.167 856.5-143.5 840.833-127.833 822-120 800-120ZM200-640 800-640 800-760 200-760 200-640ZM320-560 200-560 200-200 320-200 320-560ZM680-560 680-200 800-200 800-560 680-560ZM600-560 400-560 400-200 600-200 600-560Z" stroke="#FFFFFF" stroke-width="1.00021" fill="#FFFFFF"/></svg>